<?xml version="1.0" encoding="utf-8"?>
<!-- Generator: Adobe Illustrator 16.0.3, SVG Export Plug-In . SVG Version: 6.00 Build 0)  -->
<!DOCTYPE svg PUBLIC "-//W3C//DTD SVG 1.1//EN" "http://www.w3.org/Graphics/SVG/1.1/DTD/svg11.dtd">
<svg version="1.1" id="Layer_1" xmlns="http://www.w3.org/2000/svg" xmlns:xlink="http://www.w3.org/1999/xlink" x="0px" y="0px"
	 width="215.049px" height="168px" viewBox="0 0 215.049 168" enable-background="new 0 0 215.049 168" xml:space="preserve">
<path fill="#4AD391" d="M110.01,168L37.5,60h145L110.01,168z M178.62,62.06H41.38l6.17,9.2v-6.57l4.23,1.8v11.03l6.15,9.23V69.11
	l4.23,1.78v22.12l6.16,9.23V73.52l4.24,1.79v33.2l6.14,9.2v-39.8l4.22,1.81v44.26l6.17,9.229V82.34l4.22,1.78v55.36l6.16,9.209
	V86.75l4.22,1.79v66.42l6.169,9.22V91.15L178.62,62.06z"/>
<g>
	<path fill="#E9E9E9" d="M76.625,23.818h-5.664L63.539,0.972h5.184l5.087,16.063h0.064l5.152-16.063h5.184L76.625,23.818z"/>
	<path fill="#E9E9E9" d="M86.162,0.972h5.023v22.846h-5.023V0.972z"/>
	<path fill="#E9E9E9" d="M99.026,16.235c0,3.04,2.368,4.224,5.055,4.224c1.76,0,4.448-0.512,4.448-2.848
		c0-2.496-3.456-2.848-6.784-3.776c-3.392-0.832-6.815-2.271-6.815-6.496c0-4.704,4.416-6.911,8.543-6.911
		c4.767,0,9.152,2.08,9.152,7.359h-4.864c-0.16-2.72-2.08-3.456-4.512-3.456c-1.6,0-3.456,0.672-3.456,2.592
		c0,1.76,1.088,2.016,6.815,3.456c1.696,0.384,6.784,1.504,6.784,6.655c0,4.192-3.264,7.328-9.503,7.328
		c-5.056,0-9.823-2.496-9.727-8.127H99.026z"/>
	<path fill="#E9E9E9" d="M116.369,0.972h5.023v22.846h-5.023V0.972z"/>
	<path fill="#E9E9E9" d="M136.049,0.428c7.039,0,11.23,5.279,11.23,12.063c0,6.591-4.191,11.871-11.23,11.871
		s-11.231-5.28-11.231-11.871C124.817,5.708,129.01,0.428,136.049,0.428z M136.049,20.139c4.512,0,6.207-3.84,6.207-7.647
		c0-4-1.695-7.839-6.207-7.839s-6.207,3.84-6.207,7.839C129.842,16.299,131.537,20.139,136.049,20.139z"/>
	<path fill="#E9E9E9" d="M150.705,0.972h4.992l9.535,15.327h0.064V0.972H170v22.846h-5.023l-9.504-15.295h-0.064v15.295h-4.703
		V0.972z"/>
	<path fill="#E9E9E9" d="M174.418,0.972h17.086v4.224h-12.063v4.896h11.07v3.904h-11.07v5.6h12.318v4.224h-17.342V0.972z"/>
	<path fill="#E9E9E9" d="M195.152,0.972h12.32c4.096,0,6.688,2.848,6.688,6.303c0,2.688-1.057,4.704-3.617,5.728v0.064
		c2.465,0.672,3.168,3.007,3.328,5.343c0.096,1.44,0.031,4.16,0.961,5.408h-5.025c-0.574-1.44-0.543-3.648-0.799-5.472
		c-0.352-2.4-1.279-3.456-3.809-3.456h-5.023v8.927h-5.023V0.972z M200.176,11.307h5.504c2.271,0,3.455-0.96,3.455-3.264
		c0-2.208-1.184-3.167-3.455-3.167h-5.504V11.307z"/>
</g>
<g>
	<path fill="#E9E9E9" d="M7.68,3.532H0.064v-2.56h18.271v2.56h-7.615v20.287H7.68V3.532z"/>
	<path fill="#E9E9E9" d="M20.863,0.972h3.04v9.823h12.031V0.972h3.04v22.846h-3.04V13.355H23.903v10.463h-3.04V0.972z"/>
	<path fill="#E9E9E9" d="M43.967,0.972h15.774v2.56H47.006v7.264h11.871v2.56H47.006v7.904h12.831v2.56h-15.87V0.972z"/>
</g>
</svg>
